<svg xmlns="http://www.w3.org/2000/svg" width="512" height="512">
  <g fill="#ff0" stroke="#ff0" stroke-width=".1">
    <path d="M172.321 125.928h.005-.005c-85.705.252-158.663 65.657-169.67 130.232C4.299 381.7 95.61 503.817 249.214 508.933c125.257 4.173 260.664-100.307 259.837-258.346l-.07.053C485.712 398.485 341.278 474.33 250.194 474c-121.257-.269-214.69-95.426-214.69-218.135h-.098c21.616-64.234 90.973-110.5 160.771-98.09 34.852 8.501 35.126 34.374 35.846 62.902-20.788.4-42.245-2.135-61.43-.432-54.143 8.333-89.944 26.61-90.907 82.903 1.369 43.46 33.6 76.447 72.801 76.991 44.136-.231 74.963-19.62 100.349-49.337l9.126-162.849c-22.707-33.69-47.146-41.885-89.64-42.004zm24.671 125.459c11.082 0 22.09.5 32.495.158.259 19.4 2.07 38.693 8.219 55.916-29.128 23.22-75.575 49.744-107.288 23.464-14.531-15.97-15.983-42.901-1.979-57.743 19.44-19.332 44.174-21.793 68.553-21.798z" stroke-width=".1"/>
    <path d="M252.884 2.648C137.215 2.706 2.666 96.682 2.651 256.16 35.607 106.688 129.422 44.477 249.715 36.083 379.87 40.4 473.405 156.295 477.957 251.558c-17.988 65.338-72.223 93.103-123.62 95.701-49.671-1.87-82.952-32.98-80.974-97.057l163.744.863c.183-33.21-6.179-71.968-24.72-95.89-15.992-19.548-39.183-29.437-69.821-29.437-32.5 1.4-58.98 16.474-80.615 40.71l-9.574 163.877c27.967 28.954 67.804 44.725 102.747 44.959 80.022 0 140.295-58.378 153.857-124.666-1.729-138.2-116.486-248.04-256.097-247.97zm90.624 153.76c39.608 1.86 55.944 27.907 60.061 62.816H276.141c5.932-37.115 32.668-62.288 67.367-62.817z" stroke-width=".1"/>
  </g>
</svg>
