<svg xmlns="http://www.w3.org/2000/svg" viewBox="0 0 512 512">
  <g stroke="#000" stroke-width="1.31" fill="none">
    <path d="M67.935 1.503C36.31 1.286.56 30.368.768 70.596c5.948-38.23 43.905-59.924 67.185-59.838 30.992.07 54.872 24.676 54.885 56.406C117.326 83.774 99.6 95.738 81.76 92.53c-8.908-2.198-8.979-8.889-9.163-16.266 5.314-.102 10.798.553 15.701.112 13.84-2.155 22.99-6.88 23.235-21.437-.35-11.238-8.588-19.768-18.607-19.909-11.28.06-19.388 5.09-25.876 12.775l-2.104 42.093c5.99 8.993 11.313 10.963 22.91 10.86v.002c21.896-.066 40.537-16.963 43.372-33.654-.41-32.463-23.993-64.265-63.293-65.602zm22.631 43.424c2.856-.01 5.595.804 8 2.822 3.715 4.13 4.085 11.093.506 14.931-7.227 7.272-17.317 5.313-25.827 5.595-.066-5.016-.528-10.005-2.1-14.459 5.235-4.222 12.658-8.866 19.421-8.89z" transform="matrix(3.88551 0 0 3.76451 -.438 -3.19)"/>
    <path d="M64.061 136.198c31.626.217 67.375-28.865 67.167-69.093-5.948 38.23-43.905 59.924-67.185 59.838-30.992-.07-54.873-24.676-54.885-56.407 5.512-16.61 23.24-28.573 41.078-25.364 8.908 2.198 8.978 8.89 9.162 16.266-5.313.102-10.797-.553-15.7-.112-13.839 2.155-22.99 6.88-23.235 21.437.35 11.238 8.587 19.768 18.607 19.91 11.28-.06 19.387-5.09 25.876-12.776l2.104-42.093c-5.99-8.993-11.313-10.963-22.91-10.86v-.002C22.244 37.008 3.603 53.905.768 70.596c.411 32.463 23.993 64.265 63.293 65.602zM41.43 92.774c-2.855.01-5.594-.804-8-2.822-3.714-4.13-4.084-11.094-.505-14.93 7.227-7.273 17.316-5.314 25.826-5.596.067 5.016.53 10.005 2.1 14.46-5.234 4.221-12.657 8.865-19.42 8.89z" transform="matrix(3.88551 0 0 3.76451 -.438 -3.19)"/>
  </g>
</svg>
