<?xml version="1.0" encoding="UTF-8" standalone="no"?>
<svg
   xmlns:dc="http://purl.org/dc/elements/1.1/"
   xmlns:cc="http://creativecommons.org/ns#"
   xmlns:rdf="http://www.w3.org/1999/02/22-rdf-syntax-ns#"
   xmlns:svg="http://www.w3.org/2000/svg"
   xmlns="http://www.w3.org/2000/svg"
   xmlns:sodipodi="http://sodipodi.sourceforge.net/DTD/sodipodi-0.dtd"
   xmlns:inkscape="http://www.inkscape.org/namespaces/inkscape"
   width="512"
   height="512"
   version="1.1"
   id="svg14"
   sodipodi:docname="ae.svg"
   inkscape:version="0.92.4 (5da689c313, 2019-01-14)">
  <metadata
     id="metadata20">
    <rdf:RDF>
      <cc:Work
         rdf:about="">
        <dc:format>image/svg+xml</dc:format>
        <dc:type
           rdf:resource="http://purl.org/dc/dcmitype/StillImage" />
        <dc:title></dc:title>
      </cc:Work>
    </rdf:RDF>
  </metadata>
  <defs
     id="defs18" />
  <sodipodi:namedview
     pagecolor="#ffffff"
     bordercolor="#666666"
     borderopacity="1"
     objecttolerance="10"
     gridtolerance="10"
     guidetolerance="10"
     inkscape:pageopacity="0"
     inkscape:pageshadow="2"
     inkscape:window-width="1600"
     inkscape:window-height="837"
     id="namedview16"
     showgrid="false"
     inkscape:zoom="0.59460939"
     inkscape:cx="174.60176"
     inkscape:cy="68.483498"
     inkscape:window-x="-8"
     inkscape:window-y="-8"
     inkscape:window-maximized="1"
     inkscape:current-layer="svg14" />
  <g
     id="g829"
     transform="matrix(3.8855148,0,0,3.7645096,-0.4377892,-3.1894442)"
     style="stroke:#000000;stroke-width:1.30966854;stroke-miterlimit:4;stroke-dasharray:none;stroke-opacity:1">
    <path
       style="fill:none;stroke:#000000;stroke-width:1.30966854;stroke-miterlimit:4;stroke-dasharray:none;stroke-opacity:1"
       inkscape:connector-curvature="0"
       id="path10"
       d="m 67.935406,1.503284 c -31.626,-0.217 -67.375,28.865 -67.167,69.093 5.948,-38.23 43.905,-59.924 67.185,-59.838 30.992,0.07 54.872004,24.676 54.885004,56.406 -5.512,16.61 -23.239004,28.574 -41.078004,25.365 -8.908,-2.198 -8.979,-8.889 -9.163,-16.266 5.314,-0.102 10.798,0.553 15.701,0.112 13.839004,-2.155 22.989004,-6.88 23.235004,-21.437 -0.35,-11.238 -8.588,-19.768 -18.607004,-19.909 -11.28,0.06 -19.388,5.09 -25.876,12.775 l -2.104,42.093 c 5.99,8.993 11.313,10.962996 22.91,10.859996 v 0.002 c 21.896004,-0.066 40.537004,-16.962996 43.372004,-33.653996 -0.411,-32.463 -23.993,-64.265 -63.293004,-65.602 z m 22.631,43.424 c 2.856,-0.01 5.595,0.804 8,2.822 3.715004,4.13 4.085004,11.093 0.506,14.931 -7.227,7.272 -17.317,5.313 -25.827,5.595 -0.066,-5.016 -0.528,-10.005 -2.1,-14.459 5.235,-4.222 12.658,-8.866 19.421,-8.89 z" />
    <path
       style="fill:none;stroke:#000000;stroke-width:1.30966854;stroke-miterlimit:4;stroke-dasharray:none;stroke-opacity:1"
       inkscape:connector-curvature="0"
       id="path12"
       d="m 64.061406,136.19828 c 31.626,0.217 67.375004,-28.865 67.167004,-69.092996 -5.948,38.229996 -43.905004,59.923996 -67.185004,59.837996 -30.992,-0.07 -54.873,-24.676 -54.885,-56.406996 5.512,-16.61 23.239,-28.573 41.078,-25.364 8.908,2.198 8.978,8.889 9.162,16.266 -5.313,0.102 -10.797,-0.553 -15.7,-0.112 -13.839,2.155 -22.99,6.88 -23.235,21.437 0.35,11.238 8.587,19.767996 18.607,19.908996 11.28,-0.06 19.387,-5.089996 25.876,-12.774996 l 2.104,-42.093 c -5.99,-8.993 -11.313,-10.963 -22.91,-10.86 v -0.002 c -21.896,0.066 -40.537,16.963 -43.372,33.654 0.411,32.462996 23.993,64.264996 63.293,65.601996 z m -22.632,-43.423996 c -2.855,0.01 -5.594,-0.804 -8,-2.822 -3.714,-4.13 -4.084,-11.094 -0.505,-14.931 7.227,-7.272 17.316,-5.313 25.826,-5.595 0.067,5.016 0.529,10.005 2.1,14.459 -5.234,4.222 -12.657,8.866 -19.42,8.89 z" />
  </g>
</svg>
